<svg xmlns="http://www.w3.org/2000/svg" version="1.1" xmlns:xlink="http://www.w3.org/1999/xlink" xmlns:svgjs="http://svgjs.dev/svgjs" width="1000" height="1000" viewBox="0 0 1000 1000"><rect width="1000" height="1000" fill="#caf0f8"></rect><g transform="matrix(0.7,0,0,0.7,149.57575757575756,282.1265587044535)"><svg viewBox="0 0 396 247" data-background-color="#caf0f8" preserveAspectRatio="xMidYMid meet" height="623" width="1000" xmlns="http://www.w3.org/2000/svg" xmlns:xlink="http://www.w3.org/1999/xlink"><g id="tight-bounds" transform="matrix(1,0,0,1,0.2400000000000091,-0.09999999999999432)"><svg viewBox="0 0 395.52 247.2" height="247.2" width="395.52"><g><svg></svg></g><g><svg viewBox="0 0 395.52 247.2" height="247.2" width="395.52"><g transform="matrix(1,0,0,1,39.55199999999999,92.84334877350632)"><svg viewBox="0 0 316.416 61.51330245298735" height="61.51330245298735" width="316.416"><g><svg viewBox="0 0 316.416 61.51330245298735" height="61.51330245298735" width="316.416"><g><svg viewBox="0 0 316.416 61.51330245298735" height="61.51330245298735" width="316.416"><g><svg viewBox="0 0 316.416 61.51330245298735" height="61.51330245298735" width="316.416"><g><svg viewBox="0 0 316.416 39.11973770491803" height="39.11973770491803" width="316.416"><g transform="matrix(1,0,0,1,0,0)"><svg width="316.416" viewBox="1.35 -35.6 292.78 36.2" height="39.11973770491803" data-palette-color="#03045e"><path d="M11.5 0.6L11.5 0.6Q6.75 0.6 4.05-2.05 1.35-4.7 1.35-9.4L1.35-9.4 5.6-9.4Q5.6-6.75 6.9-4.95 8.2-3.15 11.45-3.15L11.45-3.15Q14.6-3.15 15.83-4.9 17.05-6.65 17.05-9.25L17.05-9.25 17.05-35 21.25-35 21.25-9.25Q21.25-4.6 18.68-2 16.1 0.6 11.5 0.6ZM44.55 0.6L44.55 0.6Q39.4 0.6 35.52-1.68 31.65-3.95 29.47-8.05 27.3-12.15 27.3-17.5L27.3-17.5Q27.3-22.85 29.47-26.93 31.65-31 35.52-33.3 39.4-35.6 44.55-35.6L44.55-35.6Q49.75-35.6 53.62-33.3 57.5-31 59.65-26.93 61.8-22.85 61.8-17.5L61.8-17.5Q61.8-12.15 59.65-8.05 57.5-3.95 53.62-1.68 49.75 0.6 44.55 0.6ZM44.55-3.1L44.55-3.1Q48.4-3.1 51.32-4.83 54.25-6.55 55.87-9.78 57.5-13 57.5-17.5L57.5-17.5Q57.5-22 55.87-25.2 54.25-28.4 51.32-30.13 48.4-31.85 44.55-31.85L44.55-31.85Q40.7-31.85 37.77-30.13 34.85-28.4 33.22-25.2 31.6-22 31.6-17.5L31.6-17.5Q31.6-13 33.22-9.78 34.85-6.55 37.77-4.83 40.7-3.1 44.55-3.1ZM80.55 0L67.85 0 67.85-35 80.15-35Q83.85-35 86.27-33.83 88.7-32.65 89.9-30.63 91.1-28.6 91.1-26.1L91.1-26.1Q91.1-22.7 89.27-20.75 87.45-18.8 84.9-18.05L84.9-18.05Q86.85-17.7 88.45-16.5 90.05-15.3 90.97-13.5 91.9-11.7 91.9-9.55L91.9-9.55Q91.9-6.9 90.6-4.73 89.3-2.55 86.75-1.28 84.2 0 80.55 0L80.55 0ZM72.05-31.5L72.05-19.7 79.85-19.7Q83.2-19.7 85-21.28 86.8-22.85 86.8-25.65L86.8-25.65Q86.8-28.3 85.02-29.9 83.25-31.5 79.7-31.5L79.7-31.5 72.05-31.5ZM72.05-16.35L72.05-3.5 80.1-3.5Q83.7-3.5 85.65-5.18 87.6-6.85 87.6-9.85L87.6-9.85Q87.6-12.8 85.55-14.58 83.5-16.35 80-16.35L80-16.35 72.05-16.35ZM109.09 0.6L109.09 0.6Q105.24 0.6 102.39-0.8 99.54-2.2 97.99-4.7 96.44-7.2 96.44-10.5L96.44-10.5 100.84-10.5Q100.84-8.45 101.79-6.73 102.74-5 104.57-3.98 106.39-2.95 109.09-2.95L109.09-2.95Q112.64-2.95 114.59-4.65 116.54-6.35 116.54-8.9L116.54-8.9Q116.54-11 115.64-12.28 114.74-13.55 113.22-14.35 111.69-15.15 109.72-15.75 107.74-16.35 105.59-17.1L105.59-17.1Q101.54-18.5 99.59-20.58 97.64-22.65 97.64-26L97.64-26Q97.59-28.8 98.94-30.98 100.29-33.15 102.77-34.38 105.24-35.6 108.64-35.6L108.64-35.6Q111.99-35.6 114.47-34.35 116.94-33.1 118.32-30.9 119.69-28.7 119.74-25.9L119.74-25.9 115.34-25.9Q115.34-27.35 114.59-28.78 113.84-30.2 112.32-31.1 110.79-32 108.49-32L108.49-32Q105.64-32.05 103.82-30.55 101.99-29.05 101.99-26.4L101.99-26.4Q101.99-24.15 103.27-22.95 104.54-21.75 106.84-20.98 109.14-20.2 112.14-19.2L112.14-19.2Q114.64-18.3 116.64-17.1 118.64-15.9 119.77-14 120.89-12.1 120.89-9.15L120.89-9.15Q120.89-6.65 119.59-4.42 118.29-2.2 115.67-0.8 113.04 0.6 109.09 0.6ZM131.04 0L126.84 0 126.84-35 131.04-35 149.69-6.95 149.69-35 153.89-35 153.89 0 149.69 0 131.04-28.05 131.04 0ZM165.49 0L161.29 0 161.29-35 166.19-35 178.79-10.6 191.29-35 196.24-35 196.24 0 192.04 0 192.04-27.5 180.34-5 177.19-5 165.49-27.45 165.49 0ZM219.54 0.6L219.54 0.6Q214.39 0.6 210.51-1.68 206.64-3.95 204.46-8.05 202.29-12.15 202.29-17.5L202.29-17.5Q202.29-22.85 204.46-26.93 206.64-31 210.51-33.3 214.39-35.6 219.54-35.6L219.54-35.6Q224.74-35.6 228.61-33.3 232.49-31 234.64-26.93 236.79-22.85 236.79-17.5L236.79-17.5Q236.79-12.15 234.64-8.05 232.49-3.95 228.61-1.68 224.74 0.6 219.54 0.6ZM219.54-3.1L219.54-3.1Q223.39-3.1 226.31-4.83 229.24-6.55 230.86-9.78 232.49-13 232.49-17.5L232.49-17.5Q232.49-22 230.86-25.2 229.24-28.4 226.31-30.13 223.39-31.85 219.54-31.85L219.54-31.85Q215.69-31.85 212.76-30.13 209.84-28.4 208.21-25.2 206.59-22 206.59-17.5L206.59-17.5Q206.59-13 208.21-9.78 209.84-6.55 212.76-4.83 215.69-3.1 219.54-3.1ZM247.03 0L242.83 0 242.83-35 254.13-35Q258.23-35 260.83-33.65 263.43-32.3 264.68-29.95 265.93-27.6 265.93-24.75L265.93-24.75Q265.93-21.45 264.16-18.8 262.38-16.15 258.63-15.05L258.63-15.05 266.28 0 261.33 0 254.23-14.45 253.93-14.45 247.03-14.45 247.03 0ZM247.03-31.45L247.03-17.75 253.83-17.75Q257.88-17.75 259.73-19.7 261.58-21.65 261.58-24.7L261.58-24.7Q261.58-27.8 259.76-29.63 257.93-31.45 253.78-31.45L253.78-31.45 247.03-31.45ZM294.13 0L272.48 0 272.48-35 294.13-35 294.13-31.55 276.68-31.55 276.68-19.35 292.63-19.35 292.63-15.95 276.68-15.95 276.68-3.45 294.13-3.45 294.13 0Z" opacity="1" transform="matrix(1,0,0,1,0,0)" fill="#03045e" class="undefined-text-0" data-fill-palette-color="primary" id="text-0"></path></svg></g></svg></g><g transform="matrix(1,0,0,1,0,48.35496890334426)"><svg viewBox="0 0 316.416 13.158333549643087" height="13.158333549643087" width="316.416"><g transform="matrix(1,0,0,1,0,0)"><svg width="316.416" viewBox="1.35 -38.15 924.51 38.449999999999996" height="13.158333549643087" data-palette-color="#0077b6"><path d="M6.9 0.3L6.9 0.3Q5.55 0.3 3.95-0.05 2.35-0.4 1.35-0.9L1.35-0.9 1.35-3.1Q2.4-2.8 3.85-2.55 5.3-2.3 6.45-2.3L6.45-2.3Q8.1-2.3 9.33-2.78 10.55-3.25 11.25-4.48 11.95-5.7 11.95-8.05L11.95-8.05 11.95-36.7 14.85-36.7 14.85-7.75Q14.85-4.75 13.95-2.98 13.05-1.2 11.3-0.45 9.55 0.3 6.9 0.3ZM33.35 0.3L33.35 0.3Q30.6 0.3 28.47-0.28 26.35-0.85 24.9-2.33 23.45-3.8 22.75-6.48 22.05-9.15 22.05-13.35L22.05-13.35Q22.05-17.6 22.77-20.28 23.5-22.95 24.92-24.4 26.35-25.85 28.47-26.4 30.6-26.95 33.35-26.95L33.35-26.95Q36.1-26.95 38.22-26.4 40.35-25.85 41.8-24.4 43.25-22.95 43.97-20.28 44.7-17.6 44.7-13.35L44.7-13.35Q44.7-9.15 43.97-6.45 43.25-3.75 41.82-2.3 40.4-0.85 38.25-0.28 36.1 0.3 33.35 0.3ZM33.35-2.15L33.35-2.15Q35.35-2.15 36.95-2.53 38.55-2.9 39.6-4.03 40.65-5.15 41.22-7.4 41.8-9.65 41.8-13.35L41.8-13.35Q41.8-17.1 41.22-19.33 40.65-21.55 39.6-22.68 38.55-23.8 36.95-24.18 35.35-24.55 33.35-24.55L33.35-24.55Q31.3-24.55 29.75-24.18 28.2-23.8 27.12-22.68 26.05-21.55 25.5-19.33 24.95-17.1 24.95-13.35L24.95-13.35Q24.95-9.65 25.5-7.4 26.05-5.15 27.12-4.03 28.2-2.9 29.75-2.53 31.3-2.15 33.35-2.15ZM64 0.3L64 0.3Q62.09 0.3 60.37-0.2 58.65-0.7 57.22-1.4 55.8-2.1 54.8-2.75L54.8-2.75 54.15 0 51.9 0 51.9-38.15 54.8-38.15 54.8-24.05Q56.8-25.25 59.32-26.1 61.84-26.95 63.9-26.95L63.9-26.95Q67.05-26.95 69.17-25.63 71.3-24.3 72.4-21.28 73.5-18.25 73.5-13.15L73.5-13.15Q73.5-9.1 72.55-6.08 71.59-3.05 69.52-1.38 67.45 0.3 64 0.3ZM63.25-2.15L63.25-2.15Q65.7-2.15 67.32-3.4 68.95-4.65 69.77-7.15 70.59-9.65 70.59-13.25L70.59-13.25Q70.59-17.95 69.65-20.35 68.7-22.75 67.05-23.65 65.4-24.55 63.25-24.55L63.25-24.55Q60.75-24.55 58.82-23.85 56.9-23.15 54.8-22.05L54.8-22.05 54.8-4.6Q56.5-3.7 58.57-2.93 60.65-2.15 63.25-2.15ZM103.39 0.3L103.39 0.3Q102.49 0.3 101.04 0.25 99.59 0.2 97.99 0.13 96.39 0.05 95.09-0.05 93.79-0.15 93.14-0.25L93.14-0.25 93.14-2 103.79-2Q105.64-2 107.02-2.3 108.39-2.6 109.17-3.55 109.94-4.5 109.94-6.5L109.94-6.5 109.94-7.8Q109.94-9.75 108.64-10.88 107.34-12 104.54-12L104.54-12 100.94-12Q98.49-12 96.72-12.58 94.94-13.15 93.94-14.55 92.94-15.95 92.94-18.4L92.94-18.4 92.94-19.75Q92.94-22.25 93.92-23.8 94.89-25.35 96.87-26.13 98.84-26.9 101.94-26.9L101.94-26.9Q103.24-26.9 105.04-26.83 106.84-26.75 108.64-26.63 110.44-26.5 111.54-26.3L111.54-26.3 111.54-24.5 101.54-24.5Q98.64-24.5 97.09-23.53 95.54-22.55 95.54-19.75L95.54-19.75 95.54-18.6Q95.54-16.85 96.27-15.95 96.99-15.05 98.29-14.78 99.59-14.5 101.29-14.5L101.29-14.5 104.94-14.5Q108.49-14.5 110.52-12.85 112.54-11.2 112.54-8.05L112.54-8.05 112.54-6.35Q112.54-3.65 111.34-2.23 110.14-0.8 108.09-0.25 106.04 0.3 103.39 0.3ZM129.14 0.3L129.14 0.3Q125.04 0.3 122.66-0.98 120.29-2.25 119.29-5.25 118.29-8.25 118.29-13.4L118.29-13.4Q118.29-18.65 119.34-21.6 120.39-24.55 122.81-25.75 125.24-26.95 129.29-26.95L129.29-26.95Q132.69-26.95 134.86-26.18 137.04-25.4 138.11-23.5 139.19-21.6 139.19-18.25L139.19-18.25Q139.19-16 138.31-14.63 137.44-13.25 135.79-12.65 134.14-12.05 131.89-12.05L131.89-12.05 121.19-12.05Q121.19-8.4 121.89-6.2 122.59-4 124.41-3 126.24-2 129.79-2L129.79-2 138.59-2 138.59-0.25Q136.19 0 134.06 0.15 131.94 0.3 129.14 0.3ZM121.14-14.1L121.14-14.1 131.69-14.1Q134.14-14.1 135.34-14.98 136.54-15.85 136.54-18.25L136.54-18.25Q136.54-20.75 135.81-22.15 135.09-23.55 133.51-24.13 131.94-24.7 129.29-24.7L129.29-24.7Q126.14-24.7 124.36-23.8 122.59-22.9 121.86-20.6 121.14-18.3 121.14-14.1ZM151.44 0.3L151.44 0.3Q148.54 0.3 146.61-1.43 144.69-3.15 144.69-6.35L144.69-6.35 144.69-8.15Q144.69-11.3 146.76-13.25 148.84-15.2 152.89-15.2L152.89-15.2 162.64-15.2 162.64-18.9Q162.64-20.7 162.01-22 161.39-23.3 159.84-24 158.29-24.7 155.39-24.7L155.39-24.7 147.04-24.7 147.04-26.45Q148.69-26.65 150.96-26.85 153.24-27.05 156.19-27.1L156.19-27.1Q159.44-27.15 161.51-26.28 163.59-25.4 164.56-23.6 165.54-21.8 165.54-19.05L165.54-19.05 165.54 0 163.34 0 162.74-3.1Q162.59-3 161.51-2.48 160.44-1.95 158.74-1.3 157.04-0.65 155.14-0.18 153.24 0.3 151.44 0.3ZM152.44-2L152.44-2Q153.44-1.95 154.76-2.23 156.09-2.5 157.44-2.88 158.79-3.25 159.96-3.63 161.14-4 161.86-4.3 162.59-4.6 162.64-4.6L162.64-4.6 162.64-13.65 153.34-13.3Q150.24-13.2 148.91-11.75 147.59-10.3 147.59-8.1L147.59-8.1 147.59-6.85Q147.59-5.05 148.34-3.98 149.09-2.9 150.21-2.45 151.34-2 152.44-2ZM176.43 0L173.53 0 173.53-26.65 175.68-26.65 176.43-21.85Q178.33-24.05 180.66-25.5 182.98-26.95 186.03-26.95L186.03-26.95Q186.78-26.95 187.43-26.88 188.08-26.8 188.63-26.65L188.63-26.65 188.63-23.7Q187.98-23.8 187.28-23.9 186.58-24 185.78-24L185.78-24Q183.83-24 182.31-23.5 180.78-23 179.38-22.03 177.98-21.05 176.43-19.6L176.43-19.6 176.43 0ZM203.48 0.3L203.48 0.3Q201.23 0.3 199.33-0.3 197.43-0.9 196.01-2.38 194.58-3.85 193.78-6.5 192.98-9.15 192.98-13.3L192.98-13.3Q192.98-17.45 193.73-20.1 194.48-22.75 195.86-24.25 197.23-25.75 199.18-26.33 201.13-26.9 203.53-26.9L203.53-26.9Q205.38-26.9 207.76-26.78 210.13-26.65 212.18-26.35L212.18-26.35 212.18-24.6 204.18-24.6Q201.53-24.6 199.71-23.73 197.88-22.85 196.88-20.38 195.88-17.9 195.88-13.15L195.88-13.15Q195.88-8.65 196.93-6.23 197.98-3.8 199.83-2.93 201.68-2.05 204.18-2.05L204.18-2.05 212.58-2.05 212.58-0.3Q211.43-0.15 209.98 0 208.53 0.15 206.88 0.23 205.23 0.3 203.48 0.3ZM221.38 0L218.48 0 218.48-38.15 221.38-38.15 221.38-23.65Q223.33-25 226-26.05 228.68-27.1 231.53-27.1L231.53-27.1Q234.28-27.1 236.1-25.9 237.93-24.7 238.85-22.68 239.78-20.65 239.78-18.3L239.78-18.3 239.78 0 236.88 0 236.88-18.05Q236.88-19.85 236.13-21.3 235.38-22.75 234.03-23.6 232.68-24.45 230.73-24.45L230.73-24.45Q228.83-24.45 227.3-24.1 225.78-23.75 224.38-23.13 222.98-22.5 221.38-21.65L221.38-21.65 221.38 0ZM266.52 0.3L266.52 0.3Q263.62 0.3 261.7-1.43 259.77-3.15 259.77-6.35L259.77-6.35 259.77-8.15Q259.77-11.3 261.85-13.25 263.92-15.2 267.97-15.2L267.97-15.2 277.72-15.2 277.72-18.9Q277.72-20.7 277.1-22 276.47-23.3 274.92-24 273.37-24.7 270.47-24.7L270.47-24.7 262.12-24.7 262.12-26.45Q263.77-26.65 266.05-26.85 268.32-27.05 271.27-27.1L271.27-27.1Q274.52-27.15 276.6-26.28 278.67-25.4 279.65-23.6 280.62-21.8 280.62-19.05L280.62-19.05 280.62 0 278.42 0 277.82-3.1Q277.67-3 276.6-2.48 275.52-1.95 273.82-1.3 272.12-0.65 270.22-0.18 268.32 0.3 266.52 0.3ZM267.52-2L267.52-2Q268.52-1.95 269.85-2.23 271.17-2.5 272.52-2.88 273.87-3.25 275.05-3.63 276.22-4 276.95-4.3 277.67-4.6 277.72-4.6L277.72-4.6 277.72-13.65 268.42-13.3Q265.32-13.2 264-11.75 262.67-10.3 262.67-8.1L262.67-8.1 262.67-6.85Q262.67-5.05 263.42-3.98 264.17-2.9 265.3-2.45 266.42-2 267.52-2ZM291.52 0L288.62 0 288.62-26.65 290.77-26.65 291.52-23.65Q293.52-25 296.15-26.05 298.77-27.1 301.67-27.1L301.67-27.1Q304.47-27.1 306.3-25.88 308.12-24.65 309.02-22.63 309.92-20.6 309.92-18.3L309.92-18.3 309.92 0 307.02 0 307.02-18Q307.02-19.85 306.27-21.3 305.52-22.75 304.17-23.6 302.82-24.45 300.87-24.45L300.87-24.45Q298.97-24.45 297.45-24.13 295.92-23.8 294.5-23.15 293.07-22.5 291.52-21.65L291.52-21.65 291.52 0ZM326.52 0.3L326.52 0.3Q323.17 0.3 321.04-1.15 318.92-2.6 317.92-5.6 316.92-8.6 316.92-13.15L316.92-13.15Q316.92-18.1 317.94-21.15 318.97-24.2 321.17-25.58 323.37-26.95 327.02-26.95L327.02-26.95Q329.37-26.95 331.64-26.43 333.92-25.9 335.62-25.3L335.62-25.3 335.62-38.15 338.52-38.15 338.52 0 336.22 0 335.62-2.75Q334.92-2.1 333.37-1.4 331.82-0.7 329.97-0.2 328.12 0.3 326.52 0.3ZM327.22-2.15L327.22-2.15Q329.77-2.15 331.84-2.95 333.92-3.75 335.62-4.6L335.62-4.6 335.62-23.25Q333.57-23.85 331.77-24.25 329.97-24.65 327.67-24.65L327.67-24.65Q324.87-24.65 323.14-23.6 321.42-22.55 320.62-20.08 319.82-17.6 319.82-13.25L319.82-13.25Q319.82-9.35 320.57-6.88 321.32-4.4 322.94-3.28 324.57-2.15 327.22-2.15ZM369.71 0.3L369.71 0.3Q367.46 0.3 365.56-0.3 363.66-0.9 362.24-2.38 360.81-3.85 360.01-6.5 359.21-9.15 359.21-13.3L359.21-13.3Q359.21-17.45 359.96-20.1 360.71-22.75 362.09-24.25 363.46-25.75 365.41-26.33 367.36-26.9 369.76-26.9L369.76-26.9Q371.61-26.9 373.99-26.78 376.36-26.65 378.41-26.35L378.41-26.35 378.41-24.6 370.41-24.6Q367.76-24.6 365.94-23.73 364.11-22.85 363.11-20.38 362.11-17.9 362.11-13.15L362.11-13.15Q362.11-8.65 363.16-6.23 364.21-3.8 366.06-2.93 367.91-2.05 370.41-2.05L370.41-2.05 378.81-2.05 378.81-0.3Q377.66-0.15 376.21 0 374.76 0.15 373.11 0.23 371.46 0.3 369.71 0.3ZM389.76 0.3L389.76 0.3Q386.86 0.3 384.94-1.43 383.01-3.15 383.01-6.35L383.01-6.35 383.01-8.15Q383.01-11.3 385.09-13.25 387.16-15.2 391.21-15.2L391.21-15.2 400.96-15.2 400.96-18.9Q400.96-20.7 400.34-22 399.71-23.3 398.16-24 396.61-24.7 393.71-24.7L393.71-24.7 385.36-24.7 385.36-26.45Q387.01-26.65 389.29-26.85 391.56-27.05 394.51-27.1L394.51-27.1Q397.76-27.15 399.84-26.28 401.91-25.4 402.89-23.6 403.86-21.8 403.86-19.05L403.86-19.05 403.86 0 401.66 0 401.06-3.1Q400.91-3 399.84-2.48 398.76-1.95 397.06-1.3 395.36-0.65 393.46-0.18 391.56 0.3 389.76 0.3ZM390.76-2L390.76-2Q391.76-1.95 393.09-2.23 394.41-2.5 395.76-2.88 397.11-3.25 398.29-3.63 399.46-4 400.19-4.3 400.91-4.6 400.96-4.6L400.96-4.6 400.96-13.65 391.66-13.3Q388.56-13.2 387.24-11.75 385.91-10.3 385.91-8.1L385.91-8.1 385.91-6.85Q385.91-5.05 386.66-3.98 387.41-2.9 388.54-2.45 389.66-2 390.76-2ZM414.76 0L411.86 0 411.86-26.65 414.01-26.65 414.76-21.85Q416.66-24.05 418.98-25.5 421.31-26.95 424.36-26.95L424.36-26.95Q425.11-26.95 425.76-26.88 426.41-26.8 426.96-26.65L426.96-26.65 426.96-23.7Q426.31-23.8 425.61-23.9 424.91-24 424.11-24L424.11-24Q422.16-24 420.63-23.5 419.11-23 417.71-22.03 416.31-21.05 414.76-19.6L414.76-19.6 414.76 0ZM442.16 0.3L442.16 0.3Q438.06 0.3 435.68-0.98 433.31-2.25 432.31-5.25 431.31-8.25 431.31-13.4L431.31-13.4Q431.31-18.65 432.36-21.6 433.41-24.55 435.83-25.75 438.26-26.95 442.31-26.95L442.31-26.95Q445.71-26.95 447.88-26.18 450.06-25.4 451.13-23.5 452.21-21.6 452.21-18.25L452.21-18.25Q452.21-16 451.33-14.63 450.46-13.25 448.81-12.65 447.16-12.05 444.91-12.05L444.91-12.05 434.21-12.05Q434.21-8.4 434.91-6.2 435.61-4 437.43-3 439.26-2 442.81-2L442.81-2 451.61-2 451.61-0.25Q449.21 0 447.08 0.15 444.96 0.3 442.16 0.3ZM434.16-14.1L434.16-14.1 444.71-14.1Q447.16-14.1 448.36-14.98 449.56-15.85 449.56-18.25L449.56-18.25Q449.56-20.75 448.83-22.15 448.11-23.55 446.53-24.13 444.96-24.7 442.31-24.7L442.31-24.7Q439.16-24.7 437.38-23.8 435.61-22.9 434.88-20.6 434.16-18.3 434.16-14.1ZM469.25 0.3L469.25 0.3Q465.15 0.3 462.78-0.98 460.4-2.25 459.4-5.25 458.4-8.25 458.4-13.4L458.4-13.4Q458.4-18.65 459.45-21.6 460.5-24.55 462.93-25.75 465.35-26.95 469.4-26.95L469.4-26.95Q472.8-26.95 474.98-26.18 477.15-25.4 478.23-23.5 479.3-21.6 479.3-18.25L479.3-18.25Q479.3-16 478.43-14.63 477.55-13.25 475.9-12.65 474.25-12.05 472-12.05L472-12.05 461.3-12.05Q461.3-8.4 462-6.2 462.7-4 464.53-3 466.35-2 469.9-2L469.9-2 478.7-2 478.7-0.25Q476.3 0 474.18 0.15 472.05 0.3 469.25 0.3ZM461.25-14.1L461.25-14.1 471.8-14.1Q474.25-14.1 475.45-14.98 476.65-15.85 476.65-18.25L476.65-18.25Q476.65-20.75 475.93-22.15 475.2-23.55 473.63-24.13 472.05-24.7 469.4-24.7L469.4-24.7Q466.25-24.7 464.48-23.8 462.7-22.9 461.98-20.6 461.25-18.3 461.25-14.1ZM489.4 0L486.5 0 486.5-26.65 488.65-26.65 489.4-21.85Q491.3-24.05 493.63-25.5 495.95-26.95 499-26.95L499-26.95Q499.75-26.95 500.4-26.88 501.05-26.8 501.6-26.65L501.6-26.65 501.6-23.7Q500.95-23.8 500.25-23.9 499.55-24 498.75-24L498.75-24Q496.8-24 495.28-23.5 493.75-23 492.35-22.03 490.95-21.05 489.4-19.6L489.4-19.6 489.4 0ZM525.7 0.3L525.7 0.3Q522.8 0.3 520.87-1.43 518.95-3.15 518.95-6.35L518.95-6.35 518.95-8.15Q518.95-11.3 521.02-13.25 523.1-15.2 527.15-15.2L527.15-15.2 536.9-15.2 536.9-18.9Q536.9-20.7 536.27-22 535.65-23.3 534.1-24 532.55-24.7 529.65-24.7L529.65-24.7 521.3-24.7 521.3-26.45Q522.95-26.65 525.22-26.85 527.5-27.05 530.45-27.1L530.45-27.1Q533.7-27.15 535.77-26.28 537.85-25.4 538.82-23.6 539.8-21.8 539.8-19.05L539.8-19.05 539.8 0 537.6 0 537-3.1Q536.85-3 535.77-2.48 534.7-1.95 533-1.3 531.3-0.65 529.4-0.18 527.5 0.3 525.7 0.3ZM526.7-2L526.7-2Q527.7-1.95 529.02-2.23 530.35-2.5 531.7-2.88 533.05-3.25 534.22-3.63 535.4-4 536.12-4.3 536.85-4.6 536.9-4.6L536.9-4.6 536.9-13.65 527.6-13.3Q524.5-13.2 523.17-11.75 521.85-10.3 521.85-8.1L521.85-8.1 521.85-6.85Q521.85-5.05 522.6-3.98 523.35-2.9 524.47-2.45 525.6-2 526.7-2ZM556.39 0.3L556.39 0.3Q553.04 0.3 550.92-1.15 548.79-2.6 547.79-5.6 546.79-8.6 546.79-13.15L546.79-13.15Q546.79-18.1 547.82-21.15 548.84-24.2 551.04-25.58 553.24-26.95 556.89-26.95L556.89-26.95Q559.24-26.95 561.52-26.43 563.79-25.9 565.49-25.3L565.49-25.3 565.49-38.15 568.39-38.15 568.39 0 566.09 0 565.49-2.75Q564.79-2.1 563.24-1.4 561.69-0.7 559.84-0.2 557.99 0.3 556.39 0.3ZM557.09-2.15L557.09-2.15Q559.64-2.15 561.72-2.95 563.79-3.75 565.49-4.6L565.49-4.6 565.49-23.25Q563.44-23.85 561.64-24.25 559.84-24.65 557.54-24.65L557.54-24.65Q554.74-24.65 553.02-23.6 551.29-22.55 550.49-20.08 549.69-17.6 549.69-13.25L549.69-13.25Q549.69-9.35 550.44-6.88 551.19-4.4 552.82-3.28 554.44-2.15 557.09-2.15ZM586.99 0L583.69 0 573.34-26.65 576.29-26.65 585.39-2.7 594.69-26.65 597.64-26.65 586.99 0ZM606.84 0.3L606.84 0.3Q603.94 0.3 602.01-1.43 600.09-3.15 600.09-6.35L600.09-6.35 600.09-8.15Q600.09-11.3 602.16-13.25 604.24-15.2 608.29-15.2L608.29-15.2 618.04-15.2 618.04-18.9Q618.04-20.7 617.41-22 616.79-23.3 615.24-24 613.69-24.7 610.79-24.7L610.79-24.7 602.44-24.7 602.44-26.45Q604.09-26.65 606.36-26.85 608.64-27.05 611.59-27.1L611.59-27.1Q614.84-27.15 616.91-26.28 618.99-25.4 619.96-23.6 620.94-21.8 620.94-19.05L620.94-19.05 620.94 0 618.74 0 618.14-3.1Q617.99-3 616.91-2.48 615.84-1.95 614.14-1.3 612.44-0.65 610.54-0.18 608.64 0.3 606.84 0.3ZM607.84-2L607.84-2Q608.84-1.95 610.16-2.23 611.49-2.5 612.84-2.88 614.19-3.25 615.36-3.63 616.54-4 617.26-4.3 617.99-4.6 618.04-4.6L618.04-4.6 618.04-13.65 608.74-13.3Q605.64-13.2 604.31-11.75 602.99-10.3 602.99-8.1L602.99-8.1 602.99-6.85Q602.99-5.05 603.74-3.98 604.49-2.9 605.61-2.45 606.74-2 607.84-2ZM631.83 0L628.93 0 628.93-26.65 631.08-26.65 631.83-23.65Q633.83-25 636.46-26.05 639.08-27.1 641.98-27.1L641.98-27.1Q644.78-27.1 646.61-25.88 648.43-24.65 649.33-22.63 650.23-20.6 650.23-18.3L650.23-18.3 650.23 0 647.33 0 647.33-18Q647.33-19.85 646.58-21.3 645.83-22.75 644.48-23.6 643.13-24.45 641.18-24.45L641.18-24.45Q639.28-24.45 637.76-24.13 636.23-23.8 634.81-23.15 633.38-22.5 631.83-21.65L631.83-21.65 631.83 0ZM667.73 0.3L667.73 0.3Q665.48 0.3 663.58-0.3 661.68-0.9 660.26-2.38 658.83-3.85 658.03-6.5 657.23-9.15 657.23-13.3L657.23-13.3Q657.23-17.45 657.98-20.1 658.73-22.75 660.11-24.25 661.48-25.75 663.43-26.33 665.38-26.9 667.78-26.9L667.78-26.9Q669.63-26.9 672.01-26.78 674.38-26.65 676.43-26.35L676.43-26.35 676.43-24.6 668.43-24.6Q665.78-24.6 663.96-23.73 662.13-22.85 661.13-20.38 660.13-17.9 660.13-13.15L660.13-13.15Q660.13-8.65 661.18-6.23 662.23-3.8 664.08-2.93 665.93-2.05 668.43-2.05L668.43-2.05 676.83-2.05 676.83-0.3Q675.68-0.15 674.23 0 672.78 0.15 671.13 0.23 669.48 0.3 667.73 0.3ZM692.58 0.3L692.58 0.3Q688.48 0.3 686.1-0.98 683.73-2.25 682.73-5.25 681.73-8.25 681.73-13.4L681.73-13.4Q681.73-18.65 682.78-21.6 683.83-24.55 686.25-25.75 688.68-26.95 692.73-26.95L692.73-26.95Q696.13-26.95 698.3-26.18 700.48-25.4 701.55-23.5 702.63-21.6 702.63-18.25L702.63-18.25Q702.63-16 701.75-14.63 700.88-13.25 699.23-12.65 697.58-12.05 695.33-12.05L695.33-12.05 684.63-12.05Q684.63-8.4 685.33-6.2 686.03-4 687.85-3 689.68-2 693.23-2L693.23-2 702.03-2 702.03-0.25Q699.63 0 697.5 0.15 695.38 0.3 692.58 0.3ZM684.58-14.1L684.58-14.1 695.13-14.1Q697.58-14.1 698.78-14.98 699.98-15.85 699.98-18.25L699.98-18.25Q699.98-20.75 699.25-22.15 698.53-23.55 696.95-24.13 695.38-24.7 692.73-24.7L692.73-24.7Q689.58-24.7 687.8-23.8 686.03-22.9 685.3-20.6 684.58-18.3 684.58-14.1ZM712.73 0L709.83 0 709.83-26.65 711.98-26.65 712.73-23.65Q714.78-25.05 717.38-26.08 719.98-27.1 723.03-27.1L723.03-27.1Q725.53-27.1 727.33-25.98 729.13-24.85 730.03-23.05L730.03-23.05Q731.28-24.05 733.15-24.95 735.03-25.85 737.15-26.48 739.28-27.1 741.18-27.1L741.18-27.1Q743.98-27.1 745.85-25.88 747.73-24.65 748.63-22.63 749.53-20.6 749.53-18.2L749.53-18.2 749.53 0 746.63 0 746.63-18Q746.63-19.85 745.88-21.3 745.13-22.75 743.75-23.6 742.38-24.45 740.43-24.45L740.43-24.45Q737.98-24.45 735.38-23.53 732.78-22.6 730.48-21.25L730.48-21.25Q730.78-20.5 730.95-19.68 731.13-18.85 731.13-18L731.13-18 731.13 0 728.23 0 728.23-18Q728.23-19.85 727.48-21.3 726.73-22.75 725.38-23.6 724.03-24.45 722.08-24.45L722.08-24.45Q720.18-24.45 718.65-24.13 717.13-23.8 715.7-23.15 714.28-22.5 712.73-21.65L712.73-21.65 712.73 0ZM767.37 0.3L767.37 0.3Q763.27 0.3 760.9-0.98 758.52-2.25 757.52-5.25 756.52-8.25 756.52-13.4L756.52-13.4Q756.52-18.65 757.57-21.6 758.62-24.55 761.05-25.75 763.47-26.95 767.52-26.95L767.52-26.95Q770.92-26.95 773.1-26.18 775.27-25.4 776.35-23.5 777.42-21.6 777.42-18.25L777.42-18.25Q777.42-16 776.55-14.63 775.67-13.25 774.02-12.65 772.37-12.05 770.12-12.05L770.12-12.05 759.42-12.05Q759.42-8.4 760.12-6.2 760.82-4 762.65-3 764.47-2 768.02-2L768.02-2 776.82-2 776.82-0.25Q774.42 0 772.3 0.15 770.17 0.3 767.37 0.3ZM759.37-14.1L759.37-14.1 769.92-14.1Q772.37-14.1 773.57-14.98 774.77-15.85 774.77-18.25L774.77-18.25Q774.77-20.75 774.05-22.15 773.32-23.55 771.75-24.13 770.17-24.7 767.52-24.7L767.52-24.7Q764.37-24.7 762.6-23.8 760.82-22.9 760.1-20.6 759.37-18.3 759.37-14.1ZM787.52 0L784.62 0 784.62-26.65 786.77-26.65 787.52-23.65Q789.52-25 792.15-26.05 794.77-27.1 797.67-27.1L797.67-27.1Q800.47-27.1 802.3-25.88 804.12-24.65 805.02-22.63 805.92-20.6 805.92-18.3L805.92-18.3 805.92 0 803.02 0 803.02-18Q803.02-19.85 802.27-21.3 801.52-22.75 800.17-23.6 798.82-24.45 796.87-24.45L796.87-24.45Q794.97-24.45 793.45-24.13 791.92-23.8 790.5-23.15 789.07-22.5 787.52-21.65L787.52-21.65 787.52 0ZM825.67 0L822.32 0Q819.92 0 818.29-0.85 816.67-1.7 815.87-3.55 815.07-5.4 815.07-8.35L815.07-8.35 815.22-24.2 810.97-24.2 810.97-26.1 815.22-26.65 815.77-34.1 817.97-34.1 817.97-26.65 826.07-26.65 826.07-24.2 817.97-24.2 817.97-8.35Q817.97-6.45 818.39-5.28 818.82-4.1 819.49-3.5 820.17-2.9 820.94-2.68 821.72-2.45 822.42-2.4L822.42-2.4 825.67-2.1 825.67 0ZM848.56 0L845.66 0 845.66-38.15 848.56-38.15 848.56-23.65Q850.51-25 853.19-26.05 855.86-27.1 858.71-27.1L858.71-27.1Q861.46-27.1 863.29-25.9 865.11-24.7 866.04-22.68 866.96-20.65 866.96-18.3L866.96-18.3 866.96 0 864.06 0 864.06-18.05Q864.06-19.85 863.31-21.3 862.56-22.75 861.21-23.6 859.86-24.45 857.91-24.45L857.91-24.45Q856.01-24.45 854.49-24.1 852.96-23.75 851.56-23.13 850.16-22.5 848.56-21.65L848.56-21.65 848.56 0ZM882.96 0.3L882.96 0.3Q879.11 0.3 877.01-1.65 874.91-3.6 874.91-7.9L874.91-7.9 874.91-26.65 877.81-26.65 877.81-8.55Q877.81-4.85 879.46-3.58 881.11-2.3 884.21-2.3L884.21-2.3Q886.81-2.3 888.91-2.98 891.01-3.65 893.31-5L893.31-5 893.31-26.65 896.21-26.65 896.21 0 894.06 0 893.31-3Q891.26-1.65 888.59-0.68 885.91 0.3 882.96 0.3ZM916.36 0.3L916.36 0.3Q914.46 0.3 912.73-0.2 911.01-0.7 909.58-1.4 908.16-2.1 907.16-2.75L907.16-2.75 906.51 0 904.26 0 904.26-38.15 907.16-38.15 907.16-24.05Q909.16-25.25 911.68-26.1 914.21-26.95 916.26-26.95L916.26-26.95Q919.41-26.95 921.53-25.63 923.66-24.3 924.76-21.28 925.86-18.25 925.86-13.15L925.86-13.15Q925.86-9.1 924.91-6.08 923.96-3.05 921.88-1.38 919.81 0.3 916.36 0.3ZM915.61-2.15L915.61-2.15Q918.06-2.15 919.68-3.4 921.31-4.65 922.13-7.15 922.96-9.65 922.96-13.25L922.96-13.25Q922.96-17.95 922.01-20.35 921.06-22.75 919.41-23.65 917.76-24.55 915.61-24.55L915.61-24.55Q913.11-24.55 911.18-23.85 909.26-23.15 907.16-22.05L907.16-22.05 907.16-4.6Q908.86-3.7 910.93-2.93 913.01-2.15 915.61-2.15Z" opacity="1" transform="matrix(1,0,0,1,0,0)" fill="#0077b6" class="undefined-text-1" data-fill-palette-color="secondary" id="text-1"></path></svg></g></svg></g></svg></g></svg></g><g></g></svg></g></svg></g><g mask="url(#1b87e1dd-c195-4448-aa5d-256fa0a4711b)"><g transform="matrix(3.1300331149807636, 0, 0, 3.1300331149807636, 84.35760909425862, 1)"><svg xmlns="http://www.w3.org/2000/svg" xmlns:xlink="http://www.w3.org/1999/xlink" version="1.1" x="0" y="0" viewBox="9.739174992761491 9.299999999999997 72.4608250072385 78.33782934322308" style="enable-background:new 0 0 100 100;" xml:space="preserve" height="78.33782934322308" width="72.4608250072385" class="icon-none" data-fill-palette-color="accent" id="none"><g fill="#0096c7" data-fill-palette-color="accent"><g fill="#0096c7" data-fill-palette-color="accent"><g fill="#0096c7" data-fill-palette-color="accent"><path class="" d="M53.2 74.1c0 0.1 0 0.1-0.1 0.2 0 0.1 0 0.1-0.1 0.2L53 74.5 46 87c-0.3 0.6-1.1 0.8-1.7 0.5l-4.7-2.9c-0.6-0.4-0.8-1.2-0.4-1.8l4.2-7.4 2.8-14 8.5 5.7L53.2 74.1C53.2 74 53.2 74 53.2 74.1z" fill="#0096c7" data-fill-palette-color="accent"></path><path class="" d="M53.2 22.9c-1.9-1.4-3.1-3.6-3.1-6.1 0-4.2 3.4-7.5 7.5-7.5 4.2 0 7.5 3.4 7.5 7.5 0 3.4-2.2 6.3-5.3 7.2-0.7 0.2-1.4 0.3-2.2 0.3C56 24.4 54.5 23.8 53.2 22.9z" fill="#0096c7" data-fill-palette-color="accent"></path><path class="" d="M68 84.4c-0.2 0.7-0.8 1.1-1.5 1l-5.3-1.3c-0.7-0.2-1.1-0.8-0.9-1.5l3.1-14L43 55c-0.3-0.4-0.4-1-0.1-1.5 0-0.1 0-0.3 0-0.4l2.7-17.5-8.5 4.2-3.2 9.4c-0.2 0.7-0.9 1-1.6 0.8l-3.7-1.3c-0.7-0.2-1-0.9-0.8-1.6l4.6-13.4c0.1-0.4 0.4-0.7 0.8-0.8 0.1-0.1 0.2-0.1 0.2-0.2l14.2-6.9c0.1-0.1 0.3-0.1 0.4-0.1h0.1 0.2c0 0 0.1 0 0.1 0l3.7 0.6c0 0 0.1 0.1 0.1 0.1l4.5 4.9c0.4 0.3 1 0.1 1.2-0.3l1-3.7 4.1 0.6c0.1 0 0.2 0.1 0.3 0.1 0.2 0.1 0.3 0.2 0.5 0.3l9.9 9.9c0 0 0.1 0.1 0.1 0.1h7.1c0.7 0 1.3 0.6 1.3 1.3v3.4c0 0.7-0.6 1.3-1.3 1.3H69c-0.4 0-0.8-0.2-1-0.5L62.2 38l-3.4 15.6 13.3 8.9c0.5 0.3 0.7 1 0.5 1.6L68 84.4z" fill="#0096c7" data-fill-palette-color="accent"></path><path class="" d="M34.6 52.5c0.2 0.1 0.4 0.3 0.3 0.6l-0.8 2.2c-0.1 0.2-0.3 0.4-0.6 0.3l-9.3-3.4c-0.2-0.1-0.4-0.3-0.3-0.6l0.8-2.2c0.1-0.2 0.3-0.4 0.6-0.3l2.6 1 3.7 1.4L34.6 52.5z" fill="#0096c7" data-fill-palette-color="accent"></path><path class="" d="M53 74.4c0-0.1 0.1-0.1 0.1-0.2 0 0.1-0.1 0.2-0.2 0.3L53 74.4z" fill="#0096c7" data-fill-palette-color="accent"></path><path class="" d="M48.2 25.6C48.2 25.6 48.2 25.6 48.2 25.6l-0.2 0C48.1 25.6 48.1 25.6 48.2 25.6z" fill="#0096c7" data-fill-palette-color="accent"></path><path class="" d="M46.9 57.7l-3.6-2.4c-0.1-0.1-0.2-0.1-0.2-0.2L46.9 57.7z" fill="#0096c7" data-fill-palette-color="accent"></path><path class="" d="M40.9 59.9c0.5 0.3 0.8 0.9 0.6 1.5l-4.8 13.2c-0.2 0.7-1 1-1.6 0.8l-24.5-8.9c-0.7-0.2-1-1-0.8-1.6l4.8-13.2c0.2-0.7 1-1 1.6-0.8l7.5 2.7 17 6.2C40.8 59.8 40.8 59.9 40.9 59.9z" fill="#0096c7" data-fill-palette-color="accent"></path></g></g></g></svg></g></g></svg></g><defs><mask id="1b87e1dd-c195-4448-aa5d-256fa0a4711b"><rect width="640" height="400" fill="white"></rect><rect width="348.05760000000004" height="79.9837648498398" fill="black" x="145.97119999999998" y="160.0081175750801" id="transform-me" transform="matrix(1,0,0,1,-122.24000000000001,-76.4)"></rect></mask></defs></svg><rect width="395.52" height="247.2" fill="none" stroke="none" visibility="hidden"></rect></g></svg></g></svg>